<svg width="523" height="395" viewBox="0 0 523 395" fill="none" xmlns="http://www.w3.org/2000/svg">
<path d="M271.674 2.15195C276.852 5.18301 281.087 9.99921 283.299 15.5894C284.076 22.4223 284.082 28.915 280.588 34.9723C279.22 36.6889 277.852 37.7258 276.049 38.9644C273.145 41.1996 273.145 41.1996 272.995 43.6246C273.03 44.8138 273.03 44.8138 273.065 46.0269C273.09 46.9169 273.114 47.8068 273.14 48.7237C273.409 53.5669 273.822 58.3877 274.299 63.2144C274.442 64.7207 274.442 64.7207 274.588 66.2574C274.821 68.7019 275.058 71.1458 275.299 73.5894C276.208 73.5764 276.208 73.5764 277.135 73.5631C293.154 73.4337 308.828 75.4843 324.299 79.5894C325.575 79.9259 326.851 80.2623 328.166 80.609C336.408 82.9938 344.281 86.1085 352.174 89.4644C353.125 89.8629 354.076 90.2614 355.056 90.672C380.053 101.59 403.021 125.833 414.299 150.589C414.299 151.249 414.299 151.909 414.299 152.589C414.761 152.165 415.222 151.741 415.698 151.304C430.669 137.842 444.818 131.591 464.998 132.41C482.082 133.741 495.797 143.716 506.623 156.289C519.379 172.932 524.371 193.272 522.031 213.959C519.652 230.282 513.658 245.431 502.299 257.589C501.6 258.367 500.902 259.144 500.182 259.945C487.541 273.373 470.835 280.196 452.541 280.923C440.805 281.159 430.64 278.052 420.299 272.589C419.309 272.589 418.319 272.589 417.299 272.589C416.982 273.573 416.665 274.557 416.338 275.57C408.744 298.437 397.91 318.262 382.299 336.589C381.444 337.672 380.59 338.756 379.737 339.839C377.206 342.694 374.539 345.098 371.631 347.558C369.962 349.012 368.339 350.519 366.748 352.058C337.21 380.493 297.295 394.617 256.681 394.113C245.258 393.88 234.321 392.667 223.299 389.589C222.158 389.276 222.158 389.276 220.993 388.956C197.224 382.208 175.798 369.902 157.299 353.589C156.812 353.163 156.326 352.737 155.824 352.297C131.019 330.463 114.578 303.844 104.299 272.589C100.65 273.769 97.1271 275.061 93.6116 276.589C78.0826 282.783 60.158 282.336 44.6975 276.148C25.9319 267.338 12.1069 252.33 5.06618 232.87C-2.1902 211.335 -2.03939 188.701 8.04909 168.152C16.5211 151.808 29.4926 139.971 47.0625 134.081C60.9023 130.051 76.5188 131.418 89.2171 138.132C95.5195 141.931 100.976 146.529 106.299 151.589C108.663 148.591 110.517 145.492 112.362 142.152C122.322 124.996 136.013 109.895 152.299 98.5894C153.082 98.0403 153.864 97.4912 154.67 96.9254C181.536 79.5115 216.888 72.8176 248.299 72.5894C248.36 71.5131 248.42 70.4367 248.483 69.3277C248.523 68.6269 248.564 67.926 248.606 67.2039C248.694 65.6598 248.777 64.1153 248.856 62.5706C249.052 58.9326 249.327 55.3891 249.834 51.7769C250.918 45.9773 250.918 45.9773 248.944 40.773C247.125 39.314 247.125 39.314 245.158 38.0269C241.096 34.8864 239.671 30.0312 238.92 25.1051C238.586 18.156 240.221 11.9955 244.948 6.76523C252.332 0.106593 262.329 -2.04326 271.674 2.15195Z" fill="#E93F3F"/>
<path d="M246.991 133.06C253.781 138.3 253.781 138.3 255.881 140.932C257.441 142.336 257.441 142.336 260.08 142.151C264.705 140.654 267.807 137.95 271.526 134.889C290.888 119.579 312.087 115.321 336.401 117.076C351.982 119.298 366.626 128.976 376.401 141.076C387.334 156.888 391.175 174.424 388.005 193.45C384.602 208.871 375.725 221.551 362.713 230.451C360.134 232.095 357.689 233.407 354.901 234.701C352.291 235.796 352.291 235.796 351.648 237.916C351.351 240.511 351.815 241.681 352.948 244.018C353.298 244.767 353.649 245.517 354.01 246.289C354.386 247.065 354.763 247.84 355.151 248.639C360.305 259.324 362.942 268.967 362.776 280.889C362.766 281.939 362.757 282.989 362.747 284.072C362.342 304.996 354.641 324.242 340.123 339.483C316.4 362.083 285.449 370.077 253.455 369.354C228.619 368.418 204.207 359.507 185.401 343.076C184.717 342.536 184.034 341.996 183.33 341.44C168.931 329.779 159.713 311.338 157.401 293.076C156.327 275.551 158.581 261.281 166.114 245.352C167.72 241.925 168.401 239.945 168.401 236.076C167.723 235.748 167.045 235.419 166.346 235.08C159.004 231.328 153.227 226.892 147.401 221.076C146.536 220.229 146.536 220.229 145.655 219.365C133.488 206.409 131.633 189.517 132.053 172.596C132.369 165.893 133.621 160.233 136.401 154.076C136.825 153.129 137.249 152.181 137.686 151.205C145.428 135.656 158.941 124.984 175.151 119.326C199.246 111.417 227.144 118.253 246.991 133.06Z" fill="#F9FAFA"/>
<path d="M477.299 171.59C486.383 177.622 490.492 186.664 492.854 197.023C495.062 209.754 491.834 221.89 484.674 232.527C476.51 242.782 466.215 248.379 453.229 249.965C445.662 250.281 439.286 248.365 432.299 245.59C434.942 242.947 437.988 242.108 441.424 240.84C451.461 236.976 458.827 232.121 463.486 222.09C467.493 212.536 467.203 203.179 463.521 193.558C458.991 183.447 450.766 178.704 441.299 173.59C450.08 164.148 466.925 165.505 477.299 171.59Z" fill="#F7FAFB"/>
<path d="M72.9238 168.902C75.7051 170.293 77.8702 171.696 80.2988 173.59C79.586 174.025 78.8731 174.461 78.1387 174.91C67.8211 181.325 60.2702 186.675 56.2988 198.59C55.4699 210.439 56.0652 220.625 63.6738 230.34C70.5342 237.522 80.3311 240.774 89.2988 244.59C84.793 249.095 77.5615 249.809 71.4238 250.027C58.9923 249.66 48.5435 244.277 40.0488 235.402C30.8985 224.556 28.2017 211.463 29.2988 197.59C29.9729 194.096 30.9828 190.891 32.2988 187.59C32.5773 186.881 32.8557 186.172 33.1426 185.441C36.833 177.138 42.9656 171.959 51.2988 168.59C57.8629 166.401 66.396 166.545 72.9238 168.902Z" fill="#F8FAFB"/>
<path d="M331.736 177.153C337.39 180.523 341.235 185.371 343.299 191.59C344.305 198.486 343.383 204.265 339.998 210.356C336.498 214.958 331.728 217.78 326.299 219.59C318.609 220.515 312.904 219.827 306.432 215.446C301.875 211.482 298.66 206.256 298.061 200.172C297.861 192.723 298.74 187.377 303.947 181.836C311.528 174.967 322.123 172.828 331.736 177.153Z" fill="#E93F3F"/>
<path d="M211.799 177.214C217.761 180.792 221.193 186.05 223.299 192.589C224.102 198.685 223.265 204.18 220.299 209.589C216.05 214.642 210.687 219.078 203.951 219.863C196.721 220.133 191.143 219.034 185.299 214.589C179.906 208.331 177.855 202.721 177.963 194.507C178.619 188.809 181.123 184.601 185.307 180.734C192.849 174.876 202.811 173.073 211.799 177.214Z" fill="#E93F3F"/>
</svg>
